<svg id="Слой_1" viewBox="0 0 273.04 90.43" xmlns="http://www.w3.org/2000/svg"><style>.st0{stroke-width:4.1003;stroke-linecap:round;stroke-linejoin:round}.st0,.st1,.st2,.st3{fill:#315797;stroke:#315797;stroke-miterlimit:10}.st1{stroke-linecap:round;stroke-linejoin:round;stroke-width:4}.st2,.st3{stroke-width:3}.st3{stroke-width:2.7696}.st4{fill:#00569c}</style><path class="st0" d="M119.57 4.19L28.48 32.56h43.78l78.47-28.37z" transform="translate(-2 -1)"/><path class="st1" d="M242.92 32.56c-9.62-3.01-10.06-3.15-22.31-6.92M150.72 4.19s13.2 4.01 39.8 12.19" transform="translate(-2 -1)"/><path class="st2" d="M4.05 47.35c3.82-.48 8.35-.85 13.32-.85 9 0 15.41 1.76 19.66 5.09 4.32 3.33 6.84 8.06 6.84 14.66 0 6.66-2.45 12.12-6.98 15.87C32.35 85.94 24.87 88 15.43 88c-4.46 0-8.21-.18-11.38-.48V47.35zm6.26 36.11c1.58.24 3.89.3 6.34.3 13.39 0 20.67-6.3 20.67-17.33.07-9.63-6.41-15.75-19.66-15.75-3.24 0-5.69.24-7.34.55l-.01 32.23zM107.87 66.8c0 14.05-10.15 21.51-22.54 21.51-12.82 0-21.82-8.36-21.82-20.72 0-12.96 9.58-21.45 22.54-21.45 13.25 0 21.82 8.54 21.82 20.66zm-37.66.66c0 8.72 5.62 16.54 15.48 16.54 9.94 0 15.55-7.69 15.55-16.96 0-8.12-5.04-16.6-15.48-16.6-10.36 0-15.55 8.06-15.55 17.02zM171.3 70.45c-.36-5.69-.79-12.54-.72-17.63h-.22c-1.66 4.79-3.67 9.87-6.12 15.51l-8.57 19.81h-4.75l-7.85-19.45c-2.3-5.76-4.25-11.03-5.62-15.87h-.14c-.14 5.09-.5 11.93-.94 18.05l-1.3 17.51h-5.98l3.38-40.83h7.99l8.28 19.75c2.02 5.03 3.67 9.51 4.9 13.75h.22c1.22-4.12 2.95-8.6 5.11-13.75l8.64-19.75h7.99l3.02 40.83h-6.12l-1.2-17.93zM202.69 46.88h6.26v40.68h-6.26z" transform="translate(-2 -1)"/><path class="st3" d="M202.69 2.46v22.85l6.26.06V2.46z" transform="translate(-2 -1)"/><path class="st2" d="M234.3 47.55h6.26v19.69h.22c1.3-1.58 2.59-3.03 3.82-4.36l14.83-15.33h7.78l-17.57 17.33 18.94 23.51h-7.42l-15.99-20.05-4.61 4.48v15.57h-6.26V47.55z" transform="translate(-2 -1)"/><path class="st4" d="M264.81 2.36c2.38 0 4.1 1.92 4.1 4.3 0 2.34-1.73 4.23-4.07 4.23-2.41 0-4.17-1.89-4.17-4.27 0-2.34 1.76-4.26 4.14-4.26zm0-1.07c-3.06 0-5.5 2.38-5.5 5.34 0 3.03 2.44 5.41 5.5 5.41 3.09 0 5.47-2.38 5.47-5.41 0-2.97-2.38-5.34-5.47-5.34zm-.82 3.58c.13-.03.36-.07.68-.07.78 0 1.14.33 1.14.81 0 .55-.55.78-1.24.78h-.59V4.87zm-.03 2.41h.59c.68 0 1.01.26 1.11.85.16.62.26 1.11.42 1.3h1.33c-.13-.2-.23-.52-.39-1.33-.16-.72-.46-1.11-.98-1.3v-.07c.65-.2 1.11-.65 1.11-1.24 0-.52-.23-.94-.52-1.17-.39-.23-.85-.39-1.86-.39-.88 0-1.56.06-2.05.16v5.34h1.24V7.28z" fill="#315797" transform="translate(-2 -1)"/></svg>