<svg width="24" height="24" viewBox="0 0 24 24" fill="none" xmlns="http://www.w3.org/2000/svg"><path d="M17.53 14.606c0 1.008.287 1.41 1.037 1.41 1.671 0 2.735-2.13 2.735-5.672 0-5.414-3.945-8.006-8.871-8.006-5.068 0-9.677 3.398-9.677 9.82 0 6.135 4.032 9.476 10.224 9.476 2.103 0 3.514-.23 5.673-.95l.463 1.928c-2.131.692-4.41.892-6.165.892C4.828 23.504.478 19.04.478 12.157.478 5.217 5.518.493 12.46.493c7.229 0 11.058 4.32 11.058 9.62 0 4.492-1.41 7.92-5.846 7.92-2.017 0-3.34-.807-3.513-2.594-.519 1.987-1.9 2.593-3.774 2.593-2.506 0-4.608-1.93-4.608-5.817 0-3.917 1.844-6.336 5.156-6.336 1.757 0 2.851.691 3.339 1.785l.836-1.526h2.42v8.468h.002zm-3.542-3.801c0-1.583-1.181-2.247-2.16-2.247-1.066 0-2.246.863-2.246 3.399 0 2.016.893 3.139 2.245 3.139.95 0 2.162-.605 2.162-2.275v-2.016z" fill="#fff"/></svg>