<svg width="14" height="24" fill="none" xmlns="http://www.w3.org/2000/svg"><path d="M6.952 0C3.536 0 .757 2.683.757 5.98c0 3.298 2.779 5.98 6.195 5.98 3.416 0 6.193-2.682 6.193-5.98 0-3.297-2.777-5.98-6.193-5.98zm0 3.504c1.414 0 2.563 1.111 2.563 2.476s-1.15 2.475-2.563 2.475c-1.414 0-2.565-1.11-2.565-2.475s1.15-2.476 2.565-2.476zm-5.108 8.659a1.83 1.83 0 00-1.565.82c-.534.82-.278 1.9.569 2.416 1.12.679 2.335 1.16 3.596 1.438L.982 20.18a1.71 1.71 0 000 2.478c.356.342.82.513 1.284.513a1.84 1.84 0 001.283-.514l3.401-3.285 3.405 3.285a1.86 1.86 0 002.566 0 1.708 1.708 0 000-2.477l-3.464-3.343a11.827 11.827 0 003.596-1.438c.849-.515 1.105-1.598.571-2.416-.535-.82-1.654-1.067-2.504-.55-2.536 1.54-5.803 1.539-8.339 0a1.854 1.854 0 00-.937-.27z" fill="#fff"/></svg>